<svg width="1661" height="664" viewBox="0 0 1661 664" fill="none" xmlns="http://www.w3.org/2000/svg">
<g opacity="0.2">
<line x1="135" y1="182.5" x2="243" y2="182.5" stroke="white"/>
<line x1="246.5" y1="179" x2="246.5" y2="77" stroke="white"/>
<line x1="247" y1="74.5" x2="346" y2="74.5" stroke="white"/>
<line x1="345.5" y1="68" x2="345.5" y2="13" stroke="white"/>
<line x1="353" y1="12.5" x2="560" y2="12.5" stroke="white"/>
<line x1="561.5" y1="18" x2="561.5" y2="99" stroke="white"/>
<line x1="565" y1="100.5" x2="644" y2="100.5" stroke="white"/>
<line x1="646.5" y1="106" x2="646.5" y2="294" stroke="white"/>
<line x1="653" y1="293.5" x2="704" y2="293.5" stroke="white"/>
<line x1="519" y1="253.5" x2="393" y2="253.5" stroke="white"/>
<line x1="392.5" y1="245" x2="392.5" y2="126" stroke="white"/>
<line x1="385" y1="127.5" x2="297" y2="127.5" stroke="white"/>
<line x1="293.5" y1="132" x2="293.5" y2="291" stroke="white"/>
<line x1="291.992" y1="294.5" x2="226.992" y2="293.5" stroke="white"/>
<line x1="224.5" y1="299" x2="224.5" y2="346" stroke="white"/>
<line x1="228" y1="346.5" x2="288" y2="346.5" stroke="white"/>
<line x1="992" y1="208.5" x2="1133" y2="208.5" stroke="white"/>
<line x1="1133.5" y1="216" x2="1133.5" y2="375" stroke="white"/>
<line x1="1139" y1="376.5" x2="1333" y2="376.5" stroke="white"/>
<line x1="1333.5" y1="369" x2="1333.5" y2="70" stroke="white"/>
<line x1="1334" y1="66.5" x2="1444" y2="66.5" stroke="white"/>
<line x1="1441.5" y1="71" x2="1441.5" y2="209" stroke="white"/>
<line x1="1446" y1="209.5" x2="1496" y2="209.5" stroke="white"/>
<line x1="1497.5" y1="203" x2="1497.5" y2="147" stroke="white"/>
<line x1="1504" y1="148.5" x2="1647" y2="148.5" stroke="white"/>
<line x1="1650.5" y1="143" x2="1650.5" y2="68" stroke="white"/>
<line x1="989.5" y1="599" x2="989.5" y2="210" stroke="white"/>
<line x1="10.5" y1="356" x2="10.5" y2="645" stroke="white"/>
<line x1="131.5" y1="184" x2="131.5" y2="348" stroke="white"/>
<line x1="15" y1="353.5" x2="135" y2="353.5" stroke="white"/>
<line x1="15" y1="353.5" x2="135" y2="353.5" stroke="white"/>
<circle cx="11" cy="353" r="11" fill="#D9D9D9"/>
<circle cx="131" cy="353" r="11" fill="#D9D9D9"/>
<circle cx="131" cy="184" r="11" fill="#D9D9D9"/>
<circle cx="247" cy="184" r="11" fill="#D9D9D9"/>
<circle cx="345" cy="11" r="11" fill="#D9D9D9"/>
<circle cx="560" cy="11" r="11" fill="#D9D9D9"/>
<circle cx="560" cy="99" r="11" fill="#D9D9D9"/>
<circle cx="647" cy="99" r="11" fill="#D9D9D9"/>
<circle cx="647" cy="294" r="11" fill="#D9D9D9"/>
<circle cx="706" cy="294" r="11" fill="#D9D9D9"/>
<circle cx="1133" cy="209" r="11" fill="#D9D9D9"/>
<circle cx="990" cy="209" r="11" fill="#D9D9D9"/>
<circle cx="990" cy="601" r="11" fill="#D9D9D9"/>
<circle cx="1333" cy="375" r="11" fill="#D9D9D9"/>
<circle cx="1333" cy="65" r="11" fill="#D9D9D9"/>
<circle cx="1441" cy="65" r="11" fill="#D9D9D9"/>
<circle cx="1441" cy="209" r="11" fill="#D9D9D9"/>
<circle cx="1498" cy="209" r="11" fill="#D9D9D9"/>
<circle cx="1498" cy="147" r="11" fill="#D9D9D9"/>
<circle cx="1650" cy="147" r="11" fill="#D9D9D9"/>
<circle cx="1650" cy="65" r="11" fill="#D9D9D9"/>
<circle cx="1133" cy="375" r="11" fill="#D9D9D9"/>
<circle cx="293" cy="128" r="11" fill="#D9D9D9"/>
<circle cx="225" cy="348" r="11" fill="#D9D9D9"/>
<circle cx="225" cy="294" r="11" fill="#D9D9D9"/>
<circle cx="390" cy="128" r="11" fill="#D9D9D9"/>
<circle cx="392" cy="252" r="11" fill="#D9D9D9"/>
<circle cx="522" cy="252" r="11" fill="#D9D9D9"/>
<circle cx="282" cy="348" r="11" fill="#D9D9D9"/>
<circle cx="293" cy="294" r="11" fill="#D9D9D9"/>
<circle cx="345" cy="74" r="11" fill="#D9D9D9"/>
<circle cx="247" cy="74" r="11" fill="#D9D9D9"/>
<circle cx="11" cy="653" r="11" fill="#D9D9D9"/>
</g>
</svg>
